<?xml version="1.0" encoding="UTF-8" standalone="no"?>
<svg
   xmlns:dc="http://purl.org/dc/elements/1.1/"
   xmlns:cc="http://creativecommons.org/ns#"
   xmlns:rdf="http://www.w3.org/1999/02/22-rdf-syntax-ns#"
   xmlns:svg="http://www.w3.org/2000/svg"
   xmlns="http://www.w3.org/2000/svg"
   xmlns:sodipodi="http://sodipodi.sourceforge.net/DTD/sodipodi-0.dtd"
   xmlns:inkscape="http://www.inkscape.org/namespaces/inkscape"
   fill="#000000"
   width="100%"
   height="100%"
   viewBox="-2.4 -2.4 28.80 28.80"
   id="airbnb-circle"
   data-name="Line Color"
   class="icon line-color"
   version="1.1"
   sodipodi:docname="logo.svg"
   inkscape:version="0.92.3 (2405546, 2018-03-11)">
  <metadata
     id="metadata837">
    <rdf:RDF>
      <cc:Work
         rdf:about="">
        <dc:format>image/svg+xml</dc:format>
        <dc:type
           rdf:resource="http://purl.org/dc/dcmitype/StillImage" />
      </cc:Work>
    </rdf:RDF>
  </metadata>
  <defs
     id="defs835" />
  <sodipodi:namedview
     pagecolor="#ffffff"
     bordercolor="#666666"
     borderopacity="1"
     objecttolerance="10"
     gridtolerance="10"
     guidetolerance="10"
     inkscape:pageopacity="0"
     inkscape:pageshadow="2"
     inkscape:window-width="1920"
     inkscape:window-height="991"
     id="namedview833"
     showgrid="false"
     inkscape:zoom="27.569444"
     inkscape:cx="14.4"
     inkscape:cy="14.4"
     inkscape:window-x="-9"
     inkscape:window-y="-9"
     inkscape:window-maximized="1"
     inkscape:current-layer="SVGRepo_iconCarrier" />
  <g
     id="SVGRepo_bgCarrier"
     stroke-width="0" />
  <g
     id="SVGRepo_tracerCarrier"
     stroke-linecap="round"
     stroke-linejoin="round" />
  <g
     id="SVGRepo_iconCarrier">
    <path
       id="secondary"
       d="M13,13h0a2.19,2.19,0,0,1-1,1.87l-.75.46A4.48,4.48,0,0,1,8.85,16h0A1.85,1.85,0,0,1,7,14.15H7a1.82,1.82,0,0,1,.24-.91l2.9-5.15A2.14,2.14,0,0,1,12,7h0a2.14,2.14,0,0,1,1.86,1.09l2.9,5.15a1.82,1.82,0,0,1,.24.91h0A1.85,1.85,0,0,1,15.15,16h0a4.48,4.48,0,0,1-2.36-.67L12,14.87A2.19,2.19,0,0,1,11,13h0a1,1,0,0,1,1-1h0A1,1,0,0,1,13,13Z"
       style="fill:none;stroke:#6e4186;stroke-linecap:round;stroke-linejoin:round;stroke-width:1.5;opacity:1" />
    <circle
       id="primary"
       cx="12"
       cy="12"
       r="9"
       style="fill:none;stroke:#6e4186;stroke-linecap:round;stroke-linejoin:round;stroke-width:2" />
  </g>
</svg>
